<svg width="1198" height="236" viewBox="0 0 1198 236" fill="none" xmlns="http://www.w3.org/2000/svg">
<g clip-path="url(#clip0_225_19)">
<path d="M237.92 30.4601V94.6401H323.92V121.44H237.92V204.7H355.92V233.08H202.4V2.08008H357.92V30.4601H237.92Z" fill="black" stroke="black" stroke-miterlimit="10"/>
<path d="M550.35 234.66L532.41 185.93H435.57L416.38 234.66H376.58L482.3 0.5H491.72L589.8 234.66H550.35ZM485.35 61.05L444.99 162.76H522.28L485.35 61.05Z" fill="black" stroke="black" stroke-miterlimit="10"/>
<path d="M847.1 30.4601V94.6401H933.1V121.44H847.1V204.7H965.1V233.08H811.56V2.08008H967.04V30.4601H847.1Z" fill="black" stroke="black" stroke-miterlimit="10"/>
<path d="M1102.75 234.66H1084.8L987.8 0.5H1027.24L1094.24 170.64L1158.74 0.5H1196.92L1102.75 234.66Z" fill="black" stroke="black" stroke-miterlimit="10"/>
<path d="M122.64 204.37C111.54 203.69 84.46 199.98 62 180.57C38.35 160.14 34.78 135.49 34.37 125.57V113.57H34.22V0.969727H0V126.37C0.5 139.63 5.18 173.47 37.66 201.54C68.73 228.37 106.21 233.19 120.92 234.01L154.19 234.19V204.58L122.64 204.37Z" fill="black"/>
<path d="M763.32 108.71C762.81 95.4597 758.14 61.6196 725.66 33.5496C694.59 6.70962 657.11 1.89965 642.43 1.07965L609.16 0.889648V30.5096L640.68 30.6796C651.79 31.3596 678.86 35.0696 701.33 54.4796C724.98 74.9096 728.54 99.5596 728.96 109.48V121.48H729.1V204.83L621.25 204.97V234.27H763.32V108.71V108.71Z" fill="black"/>
</g>
<defs>
<clipPath id="clip0_225_19">
<rect width="1197.66" height="235.16" fill="white"/>
</clipPath>
</defs>
</svg>
